<?xml version="1.0" encoding="UTF-8" standalone="no"?>
<svg
   width="97.994797"
   zoomAndPan="magnify"
   viewBox="0 0 73.496098 73.457031"
   height="97.942711"
   preserveAspectRatio="xMidYMid"
   version="1.0"
   id="svg21"
   sodipodi:docname="Logo_Only.svg"
   inkscape:version="1.3 (0e150ed6c4, 2023-07-21)"
   xmlns:inkscape="http://www.inkscape.org/namespaces/inkscape"
   xmlns:sodipodi="http://sodipodi.sourceforge.net/DTD/sodipodi-0.dtd"
   xmlns="http://www.w3.org/2000/svg"
   xmlns:svg="http://www.w3.org/2000/svg">
  <sodipodi:namedview
     id="namedview21"
     pagecolor="#505050"
     bordercolor="#ffffff"
     borderopacity="1"
     inkscape:showpageshadow="0"
     inkscape:pageopacity="0"
     inkscape:pagecheckerboard="1"
     inkscape:deskcolor="#505050"
     showgrid="false"
     inkscape:zoom="1.642"
     inkscape:cx="49.025579"
     inkscape:cy="75.213155"
     inkscape:window-width="1920"
     inkscape:window-height="1017"
     inkscape:window-x="1912"
     inkscape:window-y="-8"
     inkscape:window-maximized="1"
     inkscape:current-layer="svg21" />
  <defs
     id="defs3">
    <clipPath
       id="75db23cb37">
      <path
         d="m 188,152 h 36.25391 v 52.74219 H 188 Z m 0,0"
         clip-rule="nonzero"
         id="path1" />
    </clipPath>
    <clipPath
       id="9a4ed9778e">
      <path
         d="M 150.75391,142 H 167 v 56 h -16.24609 z m 0,0"
         clip-rule="nonzero"
         id="path2" />
    </clipPath>
    <clipPath
       id="d5b4cc1896">
      <path
         d="m 171,131.24219 h 38 V 139 h -38 z m 0,0"
         clip-rule="nonzero"
         id="path3" />
    </clipPath>
  </defs>
  <g
     clip-path="url(#75db23cb37)"
     id="g4"
     transform="translate(-150.75781,-131.26172)">
    <path
       fill="#54afe6"
       d="m 189.36719,204.71875 c -0.28907,0 -0.52735,-0.22266 -0.54297,-0.51563 -0.0156,-0.29687 0.21484,-0.55468 0.51562,-0.57031 18.97266,-0.96094 33.83594,-16.60937 33.83594,-35.61719 0,-4.99609 -1.01562,-9.82812 -3.02344,-14.36718 -0.12109,-0.27344 0.004,-0.59375 0.27735,-0.71485 0.27343,-0.12109 0.59375,0.004 0.71484,0.27735 2.06641,4.67578 3.11719,9.65625 3.11719,14.80468 0,9.47266 -3.60938,18.47266 -10.16406,25.34375 -6.52735,6.84766 -15.30079,10.88282 -24.70313,11.35938 -0.0117,0 -0.0195,0 -0.0273,0"
       fill-opacity="1"
       fill-rule="nonzero"
       id="path4" />
  </g>
  <g
     clip-path="url(#9a4ed9778e)"
     id="g5"
     transform="translate(-150.75781,-131.26172)">
    <path
       fill="#2c3587"
       d="m 166.22266,197.83203 c -0.11329,0 -0.22266,-0.0312 -0.32032,-0.10156 -4.58984,-3.34766 -8.39453,-7.76953 -11.01172,-12.79297 -2.70312,-5.19141 -4.13281,-11.04297 -4.13281,-16.92188 0,-9.69531 3.75391,-18.84765 10.57422,-25.77343 0.21094,-0.21485 0.55469,-0.21875 0.76953,-0.008 0.21094,0.21094 0.21485,0.55469 0.004,0.76954 -6.61719,6.72265 -10.26172,15.60156 -10.26172,25.01171 0,11.34375 5.49219,22.125 14.69922,28.83594 0.24219,0.17578 0.29687,0.51563 0.11719,0.75781 -0.10547,0.14844 -0.26954,0.22266 -0.4375,0.22266"
       fill-opacity="1"
       fill-rule="nonzero"
       id="path5" />
  </g>
  <g
     clip-path="url(#d5b4cc1896)"
     id="g6"
     transform="translate(-150.75781,-131.26172)">
    <path
       fill="#2c3587"
       d="m 207.83594,138.60937 c -0.10547,0 -0.21094,-0.0312 -0.30469,-0.0977 -5.92188,-4.03125 -12.84766,-6.16406 -20.02344,-6.16406 -5.40625,0 -10.60547,1.18359 -15.44922,3.52343 -0.26953,0.12891 -0.59375,0.0156 -0.72265,-0.2539 -0.13282,-0.26953 -0.0195,-0.59375 0.2539,-0.72266 4.98828,-2.41016 10.34766,-3.63281 15.91797,-3.63281 7.39453,0 14.53125,2.19922 20.63672,6.35547 0.24609,0.16797 0.3125,0.5039 0.14063,0.7539 -0.10547,0.15235 -0.27344,0.23828 -0.44922,0.23828"
       fill-opacity="1"
       fill-rule="nonzero"
       id="path6" />
  </g>
  <path
     fill="#286291"
     d="m 56.468748,64.492191 c -0.16797,0 -0.33203,-0.0781 -0.4375,-0.22657 -0.17969,-0.24218 -0.125,-0.58203 0.11719,-0.75781 4.52344,-3.28516 8.16797,-7.6875 10.53906,-12.73047 0.125,-0.26953 0.44922,-0.38672 0.72266,-0.26172 0.26953,0.12891 0.38672,0.45313 0.25781,0.72266 -2.44922,5.20703 -6.21094,9.75391 -10.87891,13.14844 -0.0977,0.0703 -0.20703,0.10547 -0.32031,0.10547"
     fill-opacity="1"
     fill-rule="nonzero"
     id="path7" />
  <path
     fill="#f1ad53"
     d="m 36.749998,70.898441 c -7.35547,0 -14.36328,-2.3125 -20.27344,-6.6875 -2.84375,-2.10157 -5.33593,-4.6211 -7.40625,-7.48829 -2.10156,-2.90234 -3.71875,-6.08984 -4.8164,-9.48046 -0.0937,-0.28516 0.0625,-0.59375 0.34765,-0.6836 0.28516,-0.0937 0.59375,0.0625 0.6836,0.34766 4.43359,13.70312 17.07812,22.90625 31.46484,22.90625 2.94531,0 5.86328,-0.38672 8.67969,-1.15625 0.28906,-0.0781 0.58594,0.0937 0.66406,0.38281 0.082,0.28906 -0.0898,0.58594 -0.3789,0.66797 -2.91016,0.78906 -5.92579,1.19141 -8.96485,1.19141"
     fill-opacity="1"
     fill-rule="nonzero"
     id="path8" />
  <path
     fill="#f1ad53"
     d="m 70.347658,36.605471 c -0.29688,0 -0.53906,-0.23828 -0.54297,-0.53125 -0.36328,-17.85547 -15.19141,-32.38282 -33.05469,-32.38282 -10.72656,0 -20.83594,5.25782 -27.03906,14.0625 -0.17188,0.2461 -0.51172,0.30469 -0.75781,0.12891 -0.2461,-0.17187 -0.30469,-0.51172 -0.12891,-0.75391 3.08984,-4.39062 7.22656,-8.03906 11.95703,-10.55078 4.88672,-2.59765 10.41016,-3.97265 15.96875,-3.97265 8.98438,0 17.47266,3.47656 23.90235,9.78515 6.41796,6.29688 10.05468,14.69922 10.23828,23.66016 0.004,0.30078 -0.23438,0.54687 -0.53125,0.55469 -0.004,0 -0.008,0 -0.0117,0"
     fill-opacity="1"
     fill-rule="nonzero"
     id="path9" />
  <path
     fill="#f1ad53"
     d="m 27.968748,67.027341 c -0.0508,0 -0.10156,-0.008 -0.15234,-0.0234 -6.39063,-1.89062 -12.14063,-5.875 -16.19922,-11.21484 -4.19141,-5.51953 -6.40625,-12.10547 -6.40625,-19.03516 0,-11.58203 6.34375,-22.21484 16.55859,-27.75 0.26563,-0.14453 0.59375,-0.0469 0.73828,0.21875 0.14063,0.26172 0.043,0.59375 -0.21875,0.73438 -9.86328,5.34766 -15.99218,15.61328 -15.99218,26.79687 0,13.39454 8.97656,25.40625 21.82812,29.20704 0.28516,0.0859 0.44922,0.39062 0.36719,0.67578 -0.0703,0.23828 -0.28906,0.39062 -0.52344,0.39062"
     fill-opacity="1"
     fill-rule="nonzero"
     id="path10" />
  <path
     fill="#544f9f"
     d="m 36.749998,68.292971 c -0.11328,0 -0.22656,0 -0.33984,-0.004 -0.30078,0 -0.53906,-0.24609 -0.53906,-0.54687 0.004,-0.29688 0.24609,-0.53907 0.54296,-0.53907 0.004,0 0.004,0 0.008,0 0.10937,0.004 0.21875,0.004 0.32812,0.004 16.79297,0 30.45313,-13.66016 30.45313,-30.45313 0,-16.79296 -13.66016,-30.45312 -30.45313,-30.45312 -0.24609,0 -0.5,0 -0.74609,0.008 -0.30078,0.004 -0.55078,-0.23047 -0.5586,-0.53125 -0.004,-0.29687 0.23047,-0.54687 0.53125,-0.55469 0.25782,-0.008 0.51563,-0.008 0.77344,-0.008 17.39063,0 31.53906,14.14844 31.53906,31.53906 0,17.39063 -14.14843,31.53907 -31.53906,31.53907"
     fill-opacity="1"
     fill-rule="nonzero"
     id="path11" />
  <path
     fill="#f0401e"
     d="m 36.749998,65.687501 c -15.95312,0 -28.93359,-12.98047 -28.93359,-28.9336 0,-15.95703 12.98047,-28.93359 28.93359,-28.93359 2.20313,0 4.39844,0.25 6.52735,0.74219 0.28906,0.0664 0.47265,0.35937 0.40625,0.64844 -0.0664,0.29296 -0.35938,0.47656 -0.65235,0.41015 -2.04687,-0.47656 -4.16015,-0.71484 -6.28125,-0.71484 -15.35547,0 -27.84765,12.49219 -27.84765,27.84765 0,15.35547 12.49218,27.84766 27.84765,27.84766 2.92578,0 5.8125,-0.45312 8.57422,-1.35156 0.28516,-0.0937 0.58984,0.0625 0.68359,0.35156 0.0937,0.28516 -0.0625,0.58984 -0.34765,0.68359 -2.8711,0.92969 -5.86719,1.40235 -8.91016,1.40235"
     fill-opacity="1"
     fill-rule="nonzero"
     id="path12" />
  <path
     fill="#544f9f"
     d="m 55.835938,58.296871 c -0.14453,0 -0.29297,-0.0625 -0.39844,-0.17968 -0.20312,-0.22266 -0.1875,-0.5625 0.0352,-0.76563 5.80078,-5.27734 9.125,-12.78516 9.125,-20.59766 0,-9.16015 -4.52344,-17.74218 -12.09766,-22.95703 -0.24609,-0.16797 -0.30859,-0.50781 -0.14062,-0.7539 0.17187,-0.2461 0.50781,-0.3086 0.75781,-0.14063 7.86719,5.41797 12.56641,14.33203 12.56641,23.85156 0,4.14063 -0.85938,8.14063 -2.5586,11.89063 -1.63672,3.62109 -3.96875,6.82031 -6.92187,9.51172 -0.10547,0.0937 -0.23438,0.14062 -0.36719,0.14062"
     fill-opacity="1"
     fill-rule="nonzero"
     id="path13" />
  <path
     fill="#f0401e"
     d="m 36.749998,63.078121 c -8.95703,0 -17.22656,-4.5039 -22.11328,-12.05468 -0.16406,-0.25 -0.0898,-0.58594 0.16016,-0.75 0.2539,-0.16016 0.58984,-0.0898 0.75,0.16015 4.6875,7.23828 12.61328,11.5625 21.20312,11.5625 13.91797,0 25.24219,-11.32422 25.24219,-25.24219 0,-1.10937 -0.0742,-2.22265 -0.21484,-3.3164 -0.0391,-0.29688 0.16796,-0.56641 0.46484,-0.60938 0.29687,-0.0391 0.57031,0.17188 0.60937,0.46875 0.15235,1.13672 0.22657,2.30078 0.22657,3.45703 0,14.51563 -11.8086,26.32422 -26.32813,26.32422"
     fill-opacity="1"
     fill-rule="nonzero"
     id="path14" />
  <path
     fill="#f1ad53"
     d="m 10.996098,38.519531 c -0.28907,0 -0.53125,-0.22656 -0.54297,-0.51563 -0.0195,-0.41406 -0.0312,-0.83593 -0.0312,-1.25 0,-14.51953 11.8125,-26.32812 26.32812,-26.32812 10.4336,0 19.89844,6.18359 24.10938,15.75391 0.12109,0.27343 0,0.59375 -0.27735,0.71484 -0.27343,0.12109 -0.59375,-0.004 -0.71484,-0.27734 -4.03906,-9.17579 -13.11328,-15.10547 -23.11719,-15.10547 -13.91797,0 -25.24219,11.32422 -25.24219,25.24218 0,0.39844 0.0117,0.80079 0.0312,1.19922 0.0117,0.29688 -0.21875,0.55469 -0.51953,0.56641 -0.008,0 -0.0156,0 -0.0234,0"
     fill-opacity="1"
     fill-rule="nonzero"
     id="path15" />
  <path
     fill="#5db3e7"
     d="m 36.749998,60.472651 c -13.07812,0 -23.71875,-10.64062 -23.71875,-23.71875 0,-3.79687 0.8711,-7.42578 2.59375,-10.78515 0.13672,-0.26953 0.46485,-0.375 0.73047,-0.23828 0.26953,0.13672 0.375,0.46484 0.23828,0.73437 -1.64453,3.20313 -2.47656,6.66797 -2.47656,10.28906 0,12.48047 10.15234,22.63282 22.63281,22.63282 6.78906,0 13.16797,-3.01953 17.49219,-8.28516 0.19141,-0.23047 0.53516,-0.26562 0.76562,-0.0742 0.23047,0.19141 0.26563,0.53125 0.0742,0.76563 -4.53515,5.51562 -11.21484,8.67968 -18.33203,8.67968"
     fill-opacity="1"
     fill-rule="nonzero"
     id="path16" />
  <path
     fill="#54afe6"
     d="m 58.796878,44.457031 c -0.0547,0 -0.11328,-0.008 -0.16797,-0.0273 -0.28516,-0.0898 -0.44141,-0.39844 -0.34766,-0.6836 0.73047,-2.25 1.10547,-4.60547 1.10547,-6.99219 0,-12.48046 -10.15625,-22.63671 -22.63672,-22.63671 -3.67578,0 -7.32812,0.90625 -10.5625,2.62109 -0.26562,0.14062 -0.59375,0.0391 -0.73437,-0.22656 -0.14063,-0.26172 -0.0391,-0.59375 0.22265,-0.73438 3.39063,-1.79687 7.22266,-2.74609 11.07422,-2.74609 13.08203,0 23.72266,10.64062 23.72266,23.72265 0,2.50391 -0.39063,4.96875 -1.16016,7.32813 -0.0742,0.23047 -0.28515,0.375 -0.51562,0.375"
     fill-opacity="1"
     fill-rule="nonzero"
     id="path17" />
  <path
     fill="#544f9f"
     d="m 36.749998,57.867191 c -1.64062,0 -3.27734,-0.1875 -4.85937,-0.5625 -0.29297,-0.0703 -0.47266,-0.36329 -0.40235,-0.65625 0.0664,-0.29297 0.35938,-0.47266 0.65235,-0.40235 1.5,0.35547 3.05468,0.53516 4.60937,0.53516 11.04297,0 20.03125,-8.98438 20.03125,-20.02735 0,-11.04687 -8.98828,-20.03125 -20.03125,-20.03125 -11.04297,0 -20.02734,8.98438 -20.02734,20.03125 0,5.85157 2.55859,11.39454 7.01953,15.21485 0.22656,0.19531 0.25391,0.53906 0.0586,0.76562 -0.19531,0.23047 -0.53906,0.25391 -0.76562,0.0586 -4.70313,-4.02344 -7.39844,-9.8711 -7.39844,-16.03907 0,-11.64453 9.47266,-21.11718 21.11328,-21.11718 11.64453,0 21.11719,9.47265 21.11719,21.11718 0,11.64063 -9.47266,21.11329 -21.11719,21.11329"
     fill-opacity="1"
     fill-rule="nonzero"
     id="path18" />
  <path
     fill="#f1ad53"
     d="m 36.749998,55.261721 c -3.75,0 -7.36719,-1.1211 -10.45312,-3.24219 -3.01563,-2.07422 -5.33594,-4.95313 -6.70313,-8.32813 -0.11328,-0.27734 0.0195,-0.59375 0.29688,-0.70703 0.27734,-0.11328 0.59375,0.0234 0.70703,0.30078 2.6875,6.61719 9.02734,10.89063 16.15234,10.89063 9.60547,0 17.42188,-7.81641 17.42188,-17.42188 0,-6.57031 -3.64453,-12.51953 -9.50782,-15.51953 -0.26953,-0.13672 -0.375,-0.46484 -0.23828,-0.73437 0.13672,-0.26563 0.46485,-0.3711 0.73047,-0.23438 2.99219,1.53125 5.51563,3.84766 7.29688,6.69922 1.83593,2.9336 2.80468,6.32031 2.80468,9.78906 0,10.20313 -8.30078,18.50782 -18.50781,18.50782"
     fill-opacity="1"
     fill-rule="nonzero"
     id="path19" />
  <path
     fill="#5db3e7"
     d="m 19.390628,32.671871 c -0.0469,0 -0.0937,-0.008 -0.14063,-0.0195 -0.28906,-0.0781 -0.46484,-0.375 -0.38672,-0.66406 1.00391,-3.76172 3.23438,-7.1875 6.28907,-9.64844 3.14062,-2.53125 6.92578,-3.94531 10.94921,-4.08594 0.30079,-0.008 0.55079,0.22657 0.5625,0.52344 0.0117,0.30078 -0.22265,0.55469 -0.52343,0.5625 -7.59375,0.26563 -14.26953,5.57813 -16.22657,12.92969 -0.0664,0.24219 -0.28515,0.40234 -0.52343,0.40234"
     fill-opacity="1"
     fill-rule="nonzero"
     id="path20" />
  <path
     fill="#f14d27"
     d="m 36.749998,52.656251 c -8.76953,0 -15.90234,-7.13281 -15.90234,-15.90235 0,-8.76953 7.13281,-15.90234 15.90234,-15.90234 8.76953,0 15.90235,7.13281 15.90235,15.90234 0,1.21875 -0.13672,2.4375 -0.41407,3.61719 -0.0664,0.29297 -0.35937,0.47266 -0.65234,0.40625 -0.28906,-0.0703 -0.47266,-0.35937 -0.40625,-0.65234 0.25781,-1.09766 0.38672,-2.23438 0.38672,-3.3711 0,-8.17187 -6.64453,-14.8164 -14.81641,-14.8164 -8.16797,0 -14.8164,6.64453 -14.8164,14.8164 0,8.16797 6.64843,14.81641 14.8164,14.81641 2.69922,0 5.33985,-0.73437 7.64063,-2.12109 0.2539,-0.15235 0.58984,-0.0703 0.74609,0.1875 0.15234,0.2539 0.0703,0.58984 -0.1875,0.74218 -2.46484,1.48829 -5.30078,2.27735 -8.19922,2.27735"
     fill-opacity="1"
     fill-rule="nonzero"
     id="path21" />
</svg>
