<?xml version="1.0" encoding="UTF-8" standalone="no"?>
<svg
   width="353.64691"
   zoomAndPan="magnify"
   viewBox="0 0 265.23518 73.457031"
   height="97.942711"
   preserveAspectRatio="xMidYMid"
   version="1.0"
   id="svg54"
   sodipodi:docname="Tom farrell.svg"
   inkscape:version="1.3 (0e150ed6c4, 2023-07-21)"
   xmlns:inkscape="http://www.inkscape.org/namespaces/inkscape"
   xmlns:sodipodi="http://sodipodi.sourceforge.net/DTD/sodipodi-0.dtd"
   xmlns="http://www.w3.org/2000/svg"
   xmlns:svg="http://www.w3.org/2000/svg">
  <sodipodi:namedview
     id="namedview54"
     pagecolor="#ffffff"
     bordercolor="#000000"
     borderopacity="0.25"
     inkscape:showpageshadow="2"
     inkscape:pageopacity="0.0"
     inkscape:pagecheckerboard="0"
     inkscape:deskcolor="#d1d1d1"
     showgrid="false"
     inkscape:zoom="1.784"
     inkscape:cx="175.16816"
     inkscape:cy="85.762332"
     inkscape:window-width="1920"
     inkscape:window-height="1130"
     inkscape:window-x="3065"
     inkscape:window-y="-6"
     inkscape:window-maximized="1"
     inkscape:current-layer="svg54" />
  <defs
     id="defs3">
    <g
       id="g1" />
    <clipPath
       id="fa0a370b99">
      <path
         d="m 94,144 h 35.4375 v 52.45703 H 94 Z m 0,0"
         clip-rule="nonzero"
         id="path1" />
    </clipPath>
    <clipPath
       id="ebbce450be">
      <path
         d="M 55.9375,133 H 72 v 57 H 55.9375 Z m 0,0"
         clip-rule="nonzero"
         id="path2" />
    </clipPath>
    <clipPath
       id="384ac651af">
      <path
         d="m 76,122.95703 h 38 V 131 H 76 Z m 0,0"
         clip-rule="nonzero"
         id="path3" />
    </clipPath>
  </defs>
  <g
     clip-path="url(#fa0a370b99)"
     id="g4"
     transform="translate(-55.9375,-122.98047)">
    <path
       fill="#54afe6"
       d="m 94.546875,196.4375 c -0.285156,0 -0.527344,-0.22656 -0.539063,-0.51563 -0.01562,-0.30078 0.214844,-0.55468 0.511719,-0.57031 18.976559,-0.96484 33.835939,-16.60937 33.835939,-35.62109 0,-4.99219 -1.01563,-9.82422 -3.01953,-14.36328 -0.1211,-0.27735 0.004,-0.59766 0.27734,-0.71875 0.27344,-0.1211 0.59375,0.004 0.71485,0.27734 2.0664,4.67969 3.11328,9.66016 3.11328,14.80469 0,9.47265 -3.60547,18.47656 -10.16016,25.34765 -6.52734,6.84766 -15.30078,10.87891 -24.703125,11.35938 -0.01172,0 -0.01953,0 -0.03125,0"
       fill-opacity="1"
       fill-rule="nonzero"
       id="path4" />
  </g>
  <g
     clip-path="url(#ebbce450be)"
     id="g5"
     transform="translate(-55.9375,-122.98047)">
    <path
       fill="#2c3587"
       d="m 71.40625,189.55078 c -0.113281,0 -0.226562,-0.0352 -0.320312,-0.10547 -4.589844,-3.34375 -8.398438,-7.76562 -11.011719,-12.78906 -2.707031,-5.19141 -4.136719,-11.04297 -4.136719,-16.92578 0,-9.69531 3.757812,-18.84766 10.578125,-25.77344 0.210937,-0.21094 0.554687,-0.21484 0.765625,-0.004 0.214844,0.21094 0.21875,0.55469 0.0078,0.76563 -6.617187,6.72266 -10.265624,15.60547 -10.265624,25.01172 0,11.34765 5.496093,22.125 14.703124,28.83594 0.242188,0.17968 0.292969,0.51953 0.117188,0.76171 -0.105469,0.14454 -0.273438,0.22266 -0.4375,0.22266"
       fill-opacity="1"
       fill-rule="nonzero"
       id="path5" />
  </g>
  <g
     clip-path="url(#384ac651af)"
     id="g6"
     transform="translate(-55.9375,-122.98047)">
    <path
       fill="#2c3587"
       d="m 113.01953,130.32422 c -0.10547,0 -0.21094,-0.0312 -0.30469,-0.0937 -5.92187,-4.03516 -12.847652,-6.16406 -20.023434,-6.16406 -5.40625,0 -10.605468,1.18359 -15.449218,3.51953 -0.269532,0.13281 -0.59375,0.0195 -0.722657,-0.25 -0.132812,-0.26953 -0.01953,-0.59766 0.25,-0.72656 4.992188,-2.41016 10.347657,-3.62891 15.921875,-3.62891 7.394534,0 14.531254,2.19531 20.632814,6.35156 0.25,0.16797 0.3125,0.50781 0.14453,0.75391 -0.10547,0.15625 -0.27734,0.23828 -0.44922,0.23828"
       fill-opacity="1"
       fill-rule="nonzero"
       id="path6" />
  </g>
  <path
     fill="#286291"
     d="m 56.47266,64.488281 c -0.16797,0 -0.33594,-0.0781 -0.44141,-0.22266 -0.17578,-0.24218 -0.12109,-0.58203 0.12109,-0.75781 4.52344,-3.28906 8.16407,-7.69141 10.53516,-12.73047 0.12891,-0.27344 0.45313,-0.39062 0.72266,-0.26172 0.27343,0.12891 0.39062,0.45313 0.26172,0.72266 -2.44922,5.20703 -6.21094,9.75 -10.88282,13.14844 -0.0937,0.0664 -0.20703,0.10156 -0.3164,0.10156"
     fill-opacity="1"
     fill-rule="nonzero"
     id="path7" />
  <path
     fill="#f1ad53"
     d="m 36.753906,70.898441 c -7.355468,0 -14.367187,-2.3125 -20.277344,-6.6875 -2.839843,-2.10547 -5.332031,-4.625 -7.40625,-7.48829 -2.097656,-2.90234 -3.71875,-6.09375 -4.816406,-9.48437 -0.08984,-0.28516 0.06641,-0.58984 0.351563,-0.68359 0.285156,-0.0898 0.589843,0.0664 0.683593,0.35156 4.433594,13.69922 17.078126,22.90625 31.464844,22.90625 2.941406,0 5.863282,-0.39063 8.679684,-1.15625 0.28907,-0.0781 0.58594,0.0898 0.66407,0.3789 0.0781,0.28907 -0.0898,0.58985 -0.37891,0.66797 -2.910156,0.79297 -5.925781,1.19532 -8.964844,1.19532"
     fill-opacity="1"
     fill-rule="nonzero"
     id="path8" />
  <path
     fill="#f1ad53"
     d="m 70.34766,36.601561 c -0.29297,0 -0.53516,-0.23437 -0.54297,-0.53125 -0.35938,-17.85156 -15.1875,-32.3789 -33.050784,-32.3789 -10.726562,0 -20.835937,5.2539 -27.042968,14.05859 -0.171876,0.24609 -0.507813,0.30469 -0.753907,0.13281 -0.246093,-0.17187 -0.304687,-0.51172 -0.132812,-0.75781 3.09375,-4.39063 7.230469,-8.03516 11.960937,-10.55078 4.886719,-2.59766 10.410156,-3.96875 15.96875,-3.96875 8.984374,0 17.472654,3.47265 23.902344,9.78125 6.41797,6.30078 10.05469,14.70312 10.23438,23.66015 0.008,0.30078 -0.23047,0.55078 -0.53125,0.55469 -0.004,0 -0.008,0 -0.0117,0"
     fill-opacity="1"
     fill-rule="nonzero"
     id="path9" />
  <path
     fill="#f1ad53"
     d="m 27.972656,67.023441 c -0.05078,0 -0.101562,-0.008 -0.15625,-0.0234 -6.386718,-1.89063 -12.140625,-5.8711 -16.195312,-11.21485 -4.191406,-5.51953 -6.40625,-12.10156 -6.40625,-19.03515 0,-11.57813 6.34375,-22.21485 16.558594,-27.75 0.261718,-0.14063 0.59375,-0.043 0.734374,0.21875 0.144532,0.26562 0.04688,0.59375 -0.21875,0.73828 -9.863281,5.34375 -15.988281,15.61328 -15.988281,26.79297 0,13.39844 8.976563,25.41015 21.824219,29.21094 0.289062,0.0859 0.453125,0.38671 0.367188,0.67578 -0.07031,0.23437 -0.285157,0.38672 -0.519532,0.38672"
     fill-opacity="1"
     fill-rule="nonzero"
     id="path10" />
  <path
     fill="#544f9f"
     d="m 36.753906,68.289061 c -0.113281,0 -0.226562,0 -0.339844,0 -0.300781,-0.004 -0.542968,-0.25 -0.539062,-0.55078 0.0039,-0.29688 0.246094,-0.53516 0.542969,-0.53516 0.0039,0 0.0039,0 0.0078,0 0.109375,0 0.21875,0 0.328125,0 16.792974,0 30.453124,-13.66015 30.453124,-30.45312 0,-16.78906 -13.66015,-30.45313 -30.453124,-30.45313 -0.25,0 -0.5,0.004 -0.746094,0.008 -0.304687,0.008 -0.550781,-0.22657 -0.558593,-0.52735 -0.0078,-0.30078 0.230469,-0.55078 0.53125,-0.55469 0.253906,-0.008 0.515625,-0.0117 0.773437,-0.0117 17.390624,0 31.539064,14.14843 31.539064,31.53906 0,17.39062 -14.14844,31.53906 -31.539064,31.53906"
     fill-opacity="1"
     fill-rule="nonzero"
     id="path11" />
  <path
     fill="#f0401e"
     d="m 36.753906,65.683591 c -15.953125,0 -28.933594,-12.97656 -28.933594,-28.93359 0,-15.95313 12.980469,-28.9336 28.933594,-28.9336 2.203125,0 4.398438,0.25 6.523438,0.74219 0.292968,0.0703 0.476562,0.35938 0.40625,0.65235 -0.06641,0.29296 -0.355469,0.47265 -0.648438,0.40625 -2.050781,-0.47266 -4.160156,-0.71485 -6.28125,-0.71485 -15.355468,0 -27.847656,12.49219 -27.847656,27.84766 0,15.35547 12.492188,27.84765 27.847656,27.84765 2.925782,0 5.8125,-0.45312 8.574224,-1.34765 0.28515,-0.0937 0.58984,0.0625 0.68359,0.34765 0.0898,0.28516 -0.0664,0.58985 -0.35156,0.6836 -2.867191,0.92969 -5.867191,1.40234 -8.906254,1.40234"
     fill-opacity="1"
     fill-rule="nonzero"
     id="path12" />
  <path
     fill="#544f9f"
     d="m 55.83984,58.292971 c -0.14843,0 -0.29296,-0.0586 -0.40234,-0.17578 -0.19922,-0.22266 -0.18359,-0.56641 0.0391,-0.76954 5.79688,-5.27343 9.125,-12.78125 9.125,-20.59765 0,-9.16016 -4.52343,-17.74219 -12.09765,-22.95313 -0.25,-0.17187 -0.3125,-0.50781 -0.14063,-0.75781 0.16797,-0.24609 0.50781,-0.30859 0.75391,-0.13672 7.87109,5.41406 12.57031,14.33203 12.57031,23.84766 0,4.14062 -0.85937,8.14453 -2.55859,11.89453 -1.64063,3.62109 -3.96875,6.82031 -6.92188,9.50781 -0.10547,0.0937 -0.23437,0.14063 -0.36719,0.14063"
     fill-opacity="1"
     fill-rule="nonzero"
     id="path13" />
  <path
     fill="#f0401e"
     d="m 36.753906,63.078121 c -8.960937,0 -17.226562,-4.50781 -22.113281,-12.05468 -0.164063,-0.25391 -0.09375,-0.58594 0.160156,-0.75 0.25,-0.16407 0.585938,-0.0937 0.75,0.16015 4.6875,7.23828 12.613281,11.5586 21.203125,11.5586 13.917974,0 25.242184,-11.32422 25.242184,-25.24219 0,-1.10547 -0.0742,-2.22266 -0.21875,-3.3125 -0.0391,-0.29688 0.17188,-0.57031 0.46875,-0.60938 0.29688,-0.0391 0.57032,0.17188 0.60938,0.46875 0.14844,1.13672 0.22656,2.30078 0.22656,3.45313 0,14.51953 -11.8125,26.32812 -26.328124,26.32812"
     fill-opacity="1"
     fill-rule="nonzero"
     id="path14" />
  <path
     fill="#f1ad53"
     d="m 10.996094,38.519531 c -0.285156,0 -0.527344,-0.22656 -0.539063,-0.51953 -0.01953,-0.41406 -0.03125,-0.83203 -0.03125,-1.25 0,-14.51563 11.8125,-26.32422 26.328125,-26.32422 10.433594,0 19.898434,6.18359 24.109374,15.75391 0.1211,0.27343 -0.004,0.59375 -0.27734,0.71484 -0.27344,0.12109 -0.59375,-0.004 -0.71485,-0.27734 -4.03906,-9.17969 -13.11328,-15.10938 -23.117184,-15.10938 -13.917968,0 -25.242187,11.32422 -25.242187,25.24219 0,0.39844 0.01172,0.80469 0.02734,1.19922 0.01563,0.30078 -0.214843,0.55468 -0.515624,0.57031 -0.0078,0 -0.01563,0 -0.02734,0"
     fill-opacity="1"
     fill-rule="nonzero"
     id="path15" />
  <path
     fill="#5db3e7"
     d="m 36.753906,60.472651 c -13.078125,0 -23.722656,-10.64062 -23.722656,-23.72265 0,-3.79297 0.875,-7.42188 2.597656,-10.78516 0.136719,-0.26562 0.464844,-0.37109 0.730469,-0.23437 0.269531,0.13672 0.375,0.46484 0.238281,0.73047 -1.644531,3.20703 -2.480468,6.66796 -2.480468,10.28906 0,12.48047 10.15625,22.63672 22.636718,22.63672 6.789063,0 13.164064,-3.01953 17.492184,-8.28516 0.19141,-0.23437 0.53125,-0.26562 0.76563,-0.0742 0.23047,0.1875 0.26562,0.53125 0.0742,0.76172 -4.53516,5.51953 -11.214846,8.68359 -18.332034,8.68359"
     fill-opacity="1"
     fill-rule="nonzero"
     id="path16" />
  <path
     fill="#54afe6"
     d="m 58.80078,44.457031 c -0.0586,0 -0.11328,-0.008 -0.16797,-0.0273 -0.28515,-0.0937 -0.4414,-0.39844 -0.34765,-0.6836 0.73047,-2.2539 1.10156,-4.60547 1.10156,-6.99609 0,-12.48047 -10.15234,-22.63281 -22.632814,-22.63281 -3.675781,0 -7.332031,0.90625 -10.566406,2.61718 -0.261719,0.14063 -0.59375,0.0391 -0.734375,-0.22265 -0.136719,-0.26563 -0.03906,-0.59375 0.226563,-0.73438 3.390624,-1.79687 7.21875,-2.74609 11.074218,-2.74609 13.078124,0 23.718754,10.64062 23.718754,23.71875 0,2.5039 -0.38672,4.96875 -1.15625,7.33203 -0.0742,0.23047 -0.28907,0.375 -0.51563,0.375"
     fill-opacity="1"
     fill-rule="nonzero"
     id="path17" />
  <path
     fill="#544f9f"
     d="m 36.753906,57.867191 c -1.640625,0 -3.277344,-0.19141 -4.863281,-0.56641 -0.289063,-0.0703 -0.46875,-0.36328 -0.402344,-0.65234 0.07031,-0.29297 0.363281,-0.47266 0.652344,-0.40235 1.503906,0.35156 3.054687,0.53516 4.613281,0.53516 11.042974,0 20.027344,-8.98828 20.027344,-20.03125 0,-11.04297 -8.98437,-20.02735 -20.027344,-20.02735 -11.042968,0 -20.027344,8.98438 -20.027344,20.02735 0,5.85156 2.558594,11.39844 7.019532,15.21875 0.226562,0.19531 0.253906,0.53515 0.05859,0.76562 -0.195313,0.22657 -0.539063,0.25391 -0.765626,0.0586 -4.703124,-4.02735 -7.398437,-9.8711 -7.398437,-16.04297 0,-11.64063 9.46875,-21.11328 21.113281,-21.11328 11.640624,0 21.113284,9.47265 21.113284,21.11328 0,11.64453 -9.47266,21.11719 -21.113284,21.11719"
     fill-opacity="1"
     fill-rule="nonzero"
     id="path18" />
  <path
     fill="#f1ad53"
     d="m 36.753906,55.257811 c -3.753906,0 -7.367187,-1.12109 -10.457031,-3.24219 -3.015625,-2.07031 -5.332031,-4.94922 -6.703125,-8.32422 -0.109375,-0.27734 0.02344,-0.59375 0.300781,-0.70703 0.277344,-0.11328 0.59375,0.0195 0.707031,0.29688 2.683594,6.61719 9.023438,10.89453 16.152344,10.89453 9.605474,0 17.421874,-7.82031 17.421874,-17.42578 0,-6.57031 -3.64453,-12.51563 -9.51172,-15.51953 -0.26562,-0.13672 -0.37109,-0.46485 -0.23437,-0.73047 0.13672,-0.26563 0.46484,-0.3711 0.73047,-0.23438 2.99218,1.52735 5.51172,3.84766 7.29687,6.69922 1.83594,2.9336 2.80469,6.31641 2.80469,9.78516 0,10.20703 -8.30469,18.50781 -18.507814,18.50781"
     fill-opacity="1"
     fill-rule="nonzero"
     id="path19" />
  <path
     fill="#5db3e7"
     d="m 19.390625,32.667971 c -0.04687,0 -0.09375,-0.004 -0.140625,-0.0156 -0.289062,-0.0781 -0.460938,-0.375 -0.382812,-0.66797 1.003906,-3.75781 3.234374,-7.18359 6.285156,-9.64453 3.140625,-2.53515 6.929687,-3.94531 10.953125,-4.08594 0.300781,-0.0117 0.550781,0.22266 0.5625,0.52344 0.0078,0.30078 -0.226563,0.55078 -0.523438,0.5625 -7.597656,0.26172 -14.269531,5.57813 -16.230469,12.92578 -0.0625,0.24219 -0.28125,0.40235 -0.523437,0.40235"
     fill-opacity="1"
     fill-rule="nonzero"
     id="path20" />
  <path
     fill="#f14d27"
     d="m 36.753906,52.652341 c -8.769531,0 -15.902344,-7.13281 -15.902344,-15.90234 0,-8.76953 7.132813,-15.90235 15.902344,-15.90235 8.769534,0 15.902344,7.13282 15.902344,15.90235 0,1.22265 -0.14062,2.4414 -0.41406,3.61719 -0.0664,0.29296 -0.35938,0.47656 -0.65235,0.40625 -0.29296,-0.0664 -0.47265,-0.35938 -0.40625,-0.64844 0.25782,-1.10156 0.38672,-2.23438 0.38672,-3.375 0,-8.16797 -6.64843,-14.81641 -14.816404,-14.81641 -8.167968,0 -14.816406,6.64844 -14.816406,14.81641 0,8.17187 6.648438,14.8164 14.816406,14.8164 2.699219,0 5.339844,-0.73046 7.640624,-2.11718 0.25391,-0.15625 0.58985,-0.0742 0.74219,0.18359 0.15625,0.25781 0.0742,0.58984 -0.18359,0.74609 -2.468755,1.48829 -5.304692,2.27344 -8.199224,2.27344"
     fill-opacity="1"
     fill-rule="nonzero"
     id="path21" />
  <g
     fill="#333333"
     fill-opacity="1"
     id="g24"
     transform="translate(-55.9375,-122.98047)">
    <g
       transform="translate(144.02219,168.7036)"
       id="g23">
      <g
         id="g22">
        <path
           d="M 7.84375,0 H 5.796875 V -15.796875 H 0.21875 v -1.8125 h 13.203125 v 1.8125 H 7.84375 Z m 0,0"
           id="path22" />
      </g>
    </g>
  </g>
  <g
     fill="#333333"
     fill-opacity="1"
     id="g27"
     transform="translate(-55.9375,-122.98047)">
    <g
       transform="translate(159.47071,168.7036)"
       id="g26">
      <g
         id="g25">
        <path
           d="m 17.703125,-8.828125 c 0,2.8125 -0.714844,5.027344 -2.140625,6.640625 -1.417969,1.617188 -3.398438,2.421875 -5.9375,2.421875 -2.59375,0 -4.601562,-0.789063 -6.015625,-2.375 C 2.203125,-3.722656 1.5,-5.960938 1.5,-8.859375 c 0,-2.863281 0.707031,-5.082031 2.125,-6.65625 1.414062,-1.582031 3.425781,-2.375 6.03125,-2.375 2.519531,0 4.488281,0.804687 5.90625,2.40625 1.425781,1.605469 2.140625,3.824219 2.140625,6.65625 z m -14.03125,0 c 0,2.386719 0.503906,4.199219 1.515625,5.4375 1.019531,1.230469 2.5,1.84375 4.4375,1.84375 1.945312,0 3.421875,-0.613281 4.421875,-1.84375 1,-1.226563 1.5,-3.039063 1.5,-5.4375 0,-2.375 -0.5,-4.171875 -1.5,-5.390625 -0.992187,-1.226562 -2.453125,-1.84375 -4.390625,-1.84375 -1.960938,0 -3.449219,0.621094 -4.46875,1.859375 -1.011719,1.230469 -1.515625,3.023437 -1.515625,5.375 z m 0,0"
           id="path24" />
      </g>
    </g>
  </g>
  <g
     fill="#333333"
     fill-opacity="1"
     id="g30"
     transform="translate(-55.9375,-122.98047)">
    <g
       transform="translate(180.48399,168.7036)"
       id="g29">
      <g
         id="g28">
        <path
           d="M 10.21875,0 4.234375,-15.609375 h -0.09375 c 0.113281,1.242187 0.171875,2.710937 0.171875,4.40625 V 0 H 2.421875 V -17.609375 H 5.5 l 5.578125,14.53125 h 0.09375 l 5.640625,-14.53125 h 3.046875 V 0 H 17.8125 v -11.34375 c 0,-1.300781 0.05469,-2.71875 0.171875,-4.25 h -0.09375 L 11.859375,0 Z m 0,0"
           id="path27" />
      </g>
    </g>
  </g>
  <g
     fill="#333333"
     fill-opacity="1"
     id="g33"
     transform="translate(-55.9375,-122.98047)">
    <g
       transform="translate(204.55666,168.7036)"
       id="g32">
      <g
         id="g31" />
    </g>
  </g>
  <g
     fill="#333333"
     fill-opacity="1"
     id="g36"
     transform="translate(-55.9375,-122.98047)">
    <g
       transform="translate(212.7662,168.7036)"
       id="g35">
      <g
         id="g34">
        <path
           d="M 4.46875,0 H 2.421875 v -17.609375 h 9.8125 v 1.8125 H 4.46875 v 6.453125 h 7.296875 v 1.8125 H 4.46875 Z m 0,0"
           id="path33" />
      </g>
    </g>
  </g>
  <g
     fill="#333333"
     fill-opacity="1"
     id="g39"
     transform="translate(-55.9375,-122.98047)">
    <g
       transform="translate(227.29931,168.7036)"
       id="g38">
      <g
         id="g37">
        <path
           d="m 13.5,0 -2.203125,-5.609375 h -7.0625 L 2.078125,0 H 0 L 6.96875,-17.6875 H 8.6875 L 15.609375,0 Z m -2.84375,-7.4375 -2.046875,-5.46875 c -0.261719,-0.6875 -0.53125,-1.53125 -0.8125,-2.53125 -0.179687,0.773438 -0.433594,1.617188 -0.765625,2.53125 l -2.0625,5.46875 z m 0,0"
           id="path36" />
      </g>
    </g>
  </g>
  <g
     fill="#333333"
     fill-opacity="1"
     id="g42"
     transform="translate(-55.9375,-122.98047)">
    <g
       transform="translate(244.71115,168.7036)"
       id="g41">
      <g
         id="g40">
        <path
           d="M 4.46875,-7.328125 V 0 H 2.421875 V -17.609375 H 7.25 c 2.164062,0 3.765625,0.417969 4.796875,1.25 1.03125,0.824219 1.546875,2.0625 1.546875,3.71875 0,2.335937 -1.183594,3.90625 -3.546875,4.71875 L 14.828125,0 H 12.40625 L 8.140625,-7.328125 Z m 0,-1.75 h 2.8125 c 1.4375,0 2.492188,-0.285156 3.171875,-0.859375 0.675781,-0.582031 1.015625,-1.445312 1.015625,-2.59375 0,-1.164062 -0.34375,-2.003906 -1.03125,-2.515625 C 9.75,-15.554688 8.644531,-15.8125 7.125,-15.8125 H 4.46875 Z m 0,0"
           id="path39" />
      </g>
    </g>
  </g>
  <g
     fill="#333333"
     fill-opacity="1"
     id="g45"
     transform="translate(-55.9375,-122.98047)">
    <g
       transform="translate(261.76164,168.7036)"
       id="g44">
      <g
         id="g43">
        <path
           d="M 4.46875,-7.328125 V 0 H 2.421875 V -17.609375 H 7.25 c 2.164062,0 3.765625,0.417969 4.796875,1.25 1.03125,0.824219 1.546875,2.0625 1.546875,3.71875 0,2.335937 -1.183594,3.90625 -3.546875,4.71875 L 14.828125,0 H 12.40625 L 8.140625,-7.328125 Z m 0,-1.75 h 2.8125 c 1.4375,0 2.492188,-0.285156 3.171875,-0.859375 0.675781,-0.582031 1.015625,-1.445312 1.015625,-2.59375 0,-1.164062 -0.34375,-2.003906 -1.03125,-2.515625 C 9.75,-15.554688 8.644531,-15.8125 7.125,-15.8125 H 4.46875 Z m 0,0"
           id="path42" />
      </g>
    </g>
  </g>
  <g
     fill="#333333"
     fill-opacity="1"
     id="g48"
     transform="translate(-55.9375,-122.98047)">
    <g
       transform="translate(278.81213,168.7036)"
       id="g47">
      <g
         id="g46">
        <path
           d="m 12.234375,0 h -9.8125 v -17.609375 h 9.8125 v 1.8125 H 4.46875 V -10.125 h 7.296875 v 1.8125 H 4.46875 v 6.484375 h 7.765625 z m 0,0"
           id="path45" />
      </g>
    </g>
  </g>
  <g
     fill="#333333"
     fill-opacity="1"
     id="g51"
     transform="translate(-55.9375,-122.98047)">
    <g
       transform="translate(294.33293,168.7036)"
       id="g50">
      <g
         id="g49">
        <path
           d="M 2.421875,0 V -17.609375 H 4.46875 v 15.75 h 7.765625 V 0 Z m 0,0"
           id="path48" />
      </g>
    </g>
  </g>
  <g
     fill="#333333"
     fill-opacity="1"
     id="g54"
     transform="translate(-55.9375,-122.98047)">
    <g
       transform="translate(308.93831,168.7036)"
       id="g53">
      <g
         id="g52">
        <path
           d="M 2.421875,0 V -17.609375 H 4.46875 v 15.75 h 7.765625 V 0 Z m 0,0"
           id="path51" />
      </g>
    </g>
  </g>
</svg>
