<?xml version="1.0" encoding="UTF-8" standalone="no"?>
<svg
   width="381.8519"
   zoomAndPan="magnify"
   viewBox="0 0 286.38892 73.457031"
   height="97.942711"
   preserveAspectRatio="xMidYMid"
   version="1.0"
   id="svg105"
   sodipodi:docname="Logo_Software Developer.svg"
   inkscape:version="1.3 (0e150ed6c4, 2023-07-21)"
   xmlns:inkscape="http://www.inkscape.org/namespaces/inkscape"
   xmlns:sodipodi="http://sodipodi.sourceforge.net/DTD/sodipodi-0.dtd"
   xmlns="http://www.w3.org/2000/svg"
   xmlns:svg="http://www.w3.org/2000/svg">
  <sodipodi:namedview
     id="namedview105"
     pagecolor="#ffffff"
     bordercolor="#000000"
     borderopacity="0.25"
     inkscape:showpageshadow="2"
     inkscape:pageopacity="0.0"
     inkscape:pagecheckerboard="0"
     inkscape:deskcolor="#d1d1d1"
     showgrid="false"
     inkscape:zoom="1.784"
     inkscape:cx="212.16368"
     inkscape:cy="85.762332"
     inkscape:window-width="1920"
     inkscape:window-height="1130"
     inkscape:window-x="3065"
     inkscape:window-y="-6"
     inkscape:window-maximized="1"
     inkscape:current-layer="svg105" />
  <defs
     id="defs3">
    <g
       id="g1" />
    <clipPath
       id="72f320006c">
      <path
         d="m 66,144 h 35.57422 v 52.45703 H 66 Z m 0,0"
         clip-rule="nonzero"
         id="path1" />
    </clipPath>
    <clipPath
       id="5d74449198">
      <path
         d="M 28.074219,133 H 45 v 57 H 28.074219 Z m 0,0"
         clip-rule="nonzero"
         id="path2" />
    </clipPath>
    <clipPath
       id="f2525d751a">
      <path
         d="M 48,122.95703 H 86 V 131 H 48 Z m 0,0"
         clip-rule="nonzero"
         id="path3" />
    </clipPath>
  </defs>
  <g
     clip-path="url(#72f320006c)"
     id="g4"
     transform="translate(-28.078125,-122.98047)">
    <path
       fill="#54afe6"
       d="m 66.6875,196.4375 c -0.289062,0 -0.527344,-0.22656 -0.542969,-0.51563 -0.01563,-0.30078 0.214844,-0.55468 0.515625,-0.57031 18.972656,-0.96484 33.835934,-16.60937 33.835934,-35.62109 0,-4.99219 -1.015621,-9.82422 -3.023434,-14.36328 -0.121094,-0.27735 0.0039,-0.59766 0.277344,-0.71875 0.277344,-0.1211 0.597656,0.004 0.71875,0.27734 2.06641,4.67969 3.11328,9.66016 3.11328,14.80469 0,9.47265 -3.609374,18.47656 -10.160155,25.34765 -6.53125,6.84766 -15.304687,10.87891 -24.707031,11.35938 -0.0078,0 -0.01953,0 -0.02734,0"
       fill-opacity="1"
       fill-rule="nonzero"
       id="path4" />
  </g>
  <g
     clip-path="url(#5d74449198)"
     id="g5"
     transform="translate(-28.078125,-122.98047)">
    <path
       fill="#2c3587"
       d="m 43.542969,189.55078 c -0.109375,0 -0.222657,-0.0352 -0.320313,-0.10547 -4.585937,-3.34375 -8.394531,-7.76562 -11.011718,-12.78906 -2.703126,-5.19141 -4.132813,-11.04297 -4.132813,-16.92578 0,-9.69531 3.753906,-18.84766 10.574219,-25.77344 0.210937,-0.21094 0.554687,-0.21484 0.769531,-0.004 0.210937,0.21094 0.214844,0.55469 0.0039,0.76563 -6.617187,6.72266 -10.261719,15.60547 -10.261719,25.01172 0,11.34765 5.496094,22.125 14.699219,28.83594 0.242188,0.17968 0.296875,0.51953 0.117188,0.76171 -0.105469,0.14454 -0.269531,0.22266 -0.4375,0.22266"
       fill-opacity="1"
       fill-rule="nonzero"
       id="path5" />
  </g>
  <g
     clip-path="url(#f2525d751a)"
     id="g6"
     transform="translate(-28.078125,-122.98047)">
    <path
       fill="#2c3587"
       d="m 85.15625,130.32422 c -0.101562,0 -0.210938,-0.0312 -0.304688,-0.0937 -5.921874,-4.03516 -12.84375,-6.16406 -20.023437,-6.16406 -5.40625,0 -10.605469,1.18359 -15.445313,3.51953 -0.273437,0.13281 -0.597656,0.0195 -0.726562,-0.25 -0.128906,-0.26953 -0.01563,-0.59766 0.253906,-0.72656 4.992188,-2.41016 10.347656,-3.62891 15.917969,-3.62891 7.398437,0 14.53125,2.19531 20.636719,6.35156 0.246094,0.16797 0.3125,0.50781 0.140625,0.75391 -0.105469,0.15625 -0.273438,0.23828 -0.449219,0.23828"
       fill-opacity="1"
       fill-rule="nonzero"
       id="path6" />
  </g>
  <path
     fill="#286291"
     d="m 56.46875,64.488281 c -0.167969,0 -0.332031,-0.0781 -0.4375,-0.22266 -0.175781,-0.24218 -0.125,-0.58203 0.117187,-0.75781 4.523438,-3.28906 8.167969,-7.69141 10.539063,-12.73047 0.128906,-0.27344 0.449219,-0.39062 0.722656,-0.26172 0.269531,0.12891 0.386719,0.45313 0.257813,0.72266 -2.445313,5.20703 -6.210938,9.75 -10.878906,13.14844 -0.09766,0.0664 -0.207032,0.10156 -0.320313,0.10156"
     fill-opacity="1"
     fill-rule="nonzero"
     id="path7" />
  <path
     fill="#f1ad53"
     d="m 36.75,70.898441 c -7.355469,0 -14.363281,-2.3125 -20.273437,-6.6875 -2.84375,-2.10547 -5.335938,-4.625 -7.40625,-7.48829 -2.101563,-2.90234 -3.71875,-6.09375 -4.816407,-9.48437 -0.09375,-0.28516 0.0625,-0.58984 0.347657,-0.68359 0.285156,-0.0898 0.59375,0.0664 0.683593,0.35156 4.433594,13.69922 17.078125,22.90625 31.464844,22.90625 2.945313,0 5.863281,-0.39063 8.679687,-1.15625 0.289063,-0.0781 0.585938,0.0898 0.667969,0.3789 0.07813,0.28907 -0.09375,0.58985 -0.382812,0.66797 -2.910157,0.79297 -5.925781,1.19532 -8.964844,1.19532"
     fill-opacity="1"
     fill-rule="nonzero"
     id="path8" />
  <path
     fill="#f1ad53"
     d="m 70.347656,36.601561 c -0.296875,0 -0.539062,-0.23437 -0.542969,-0.53125 -0.363281,-17.85156 -15.1875,-32.3789 -33.054687,-32.3789 -10.726563,0 -20.835937,5.2539 -27.039063,14.05859 -0.171874,0.24609 -0.511718,0.30469 -0.757812,0.13281 -0.246094,-0.17187 -0.304688,-0.51172 -0.128906,-0.75781 3.09375,-4.39063 7.226562,-8.03516 11.957031,-10.55078 4.890625,-2.59766 10.410156,-3.96875 15.96875,-3.96875 8.984375,0 17.472656,3.47265 23.902344,9.78125 6.421875,6.30078 10.058593,14.70312 10.238281,23.66015 0.0078,0.30078 -0.230469,0.55078 -0.53125,0.55469 -0.0039,0 -0.0078,0 -0.01172,0"
     fill-opacity="1"
     fill-rule="nonzero"
     id="path9" />
  <path
     fill="#f1ad53"
     d="m 27.96875,67.023441 c -0.05078,0 -0.101563,-0.008 -0.152344,-0.0234 -6.390625,-1.89063 -12.140625,-5.8711 -16.195312,-11.21485 -4.195313,-5.51953 -6.410157,-12.10156 -6.410157,-19.03515 0,-11.57813 6.347657,-22.21485 16.558594,-27.75 0.265625,-0.14063 0.59375,-0.043 0.738282,0.21875 0.140624,0.26562 0.04297,0.59375 -0.21875,0.73828 -9.863282,5.34375 -15.992188,15.61328 -15.992188,26.79297 0,13.39844 8.976562,25.41015 21.828125,29.21094 0.285156,0.0859 0.449219,0.38671 0.367187,0.67578 -0.07031,0.23437 -0.289062,0.38672 -0.523437,0.38672"
     fill-opacity="1"
     fill-rule="nonzero"
     id="path10" />
  <path
     fill="#544f9f"
     d="m 36.75,68.289061 c -0.113281,0 -0.226563,0 -0.339844,0 -0.300781,-0.004 -0.539062,-0.25 -0.535156,-0.55078 0,-0.29688 0.246094,-0.53516 0.542969,-0.53516 0,0 0.0039,0 0.0039,0 0.109375,0 0.21875,0 0.328125,0 16.792969,0 30.457031,-13.66015 30.457031,-30.45312 0,-16.78906 -13.664062,-30.45313 -30.457031,-30.45313 -0.246094,0 -0.5,0.004 -0.746094,0.008 -0.300781,0.008 -0.546875,-0.22657 -0.554687,-0.52735 -0.0078,-0.30078 0.230468,-0.55078 0.527344,-0.55469 0.257812,-0.008 0.519531,-0.0117 0.773437,-0.0117 17.394531,0 31.542969,14.14843 31.542969,31.53906 0,17.39062 -14.148438,31.53906 -31.542969,31.53906"
     fill-opacity="1"
     fill-rule="nonzero"
     id="path11" />
  <path
     fill="#f0401e"
     d="m 36.75,65.683591 c -15.953125,0 -28.933594,-12.97656 -28.933594,-28.93359 0,-15.95313 12.980469,-28.9336 28.933594,-28.9336 2.203125,0 4.398437,0.25 6.527344,0.74219 0.292969,0.0703 0.472656,0.35938 0.40625,0.65235 -0.06641,0.29296 -0.359375,0.47265 -0.652344,0.40625 -2.046875,-0.47266 -4.160156,-0.71485 -6.28125,-0.71485 -15.351563,0 -27.847656,12.49219 -27.847656,27.84766 0,15.35547 12.496093,27.84765 27.847656,27.84765 2.929687,0 5.8125,-0.45312 8.574219,-1.34765 0.285156,-0.0937 0.59375,0.0625 0.683594,0.34765 0.09375,0.28516 -0.0625,0.58985 -0.347657,0.6836 -2.871093,0.92969 -5.867187,1.40234 -8.910156,1.40234"
     fill-opacity="1"
     fill-rule="nonzero"
     id="path12" />
  <path
     fill="#544f9f"
     d="m 55.839844,58.292971 c -0.148438,0 -0.296875,-0.0586 -0.402344,-0.17578 -0.203125,-0.22266 -0.1875,-0.56641 0.03516,-0.76954 5.800781,-5.27343 9.125,-12.78125 9.125,-20.59765 0,-9.16016 -4.523437,-17.74219 -12.097656,-22.95313 -0.246094,-0.17187 -0.308594,-0.50781 -0.140625,-0.75781 0.171875,-0.24609 0.507812,-0.30859 0.757812,-0.13672 7.871094,5.41406 12.566407,14.33203 12.566407,23.84766 0,4.14062 -0.859375,8.14453 -2.554688,11.89453 -1.640625,3.62109 -3.972656,6.82031 -6.925781,9.50781 -0.105469,0.0937 -0.234375,0.14063 -0.363281,0.14063"
     fill-opacity="1"
     fill-rule="nonzero"
     id="path13" />
  <path
     fill="#f0401e"
     d="m 36.75,63.078121 c -8.957031,0 -17.226563,-4.50781 -22.113281,-12.05468 -0.164063,-0.25391 -0.08984,-0.58594 0.160156,-0.75 0.253906,-0.16407 0.589844,-0.0937 0.75,0.16015 4.6875,7.23828 12.617188,11.5586 21.203125,11.5586 13.917969,0 25.242187,-11.32422 25.242187,-25.24219 0,-1.10547 -0.07031,-2.22266 -0.214843,-3.3125 -0.03906,-0.29688 0.167969,-0.57031 0.464843,-0.60938 0.296876,-0.0391 0.570313,0.17188 0.609376,0.46875 0.152343,1.13672 0.226562,2.30078 0.226562,3.45313 0,14.51953 -11.808594,26.32812 -26.328125,26.32812"
     fill-opacity="1"
     fill-rule="nonzero"
     id="path14" />
  <path
     fill="#f1ad53"
     d="m 10.996094,38.519531 c -0.289063,0 -0.527344,-0.22656 -0.542969,-0.51953 -0.01953,-0.41406 -0.02734,-0.83203 -0.02734,-1.25 0,-14.51563 11.808594,-26.32422 26.324219,-26.32422 10.433594,0 19.898437,6.18359 24.113281,15.75391 0.117188,0.27343 -0.0039,0.59375 -0.277344,0.71484 -0.277343,0.12109 -0.597656,-0.004 -0.71875,-0.27734 -4.039062,-9.17969 -13.113281,-15.10938 -23.117187,-15.10938 -13.917969,0 -25.238281,11.32422 -25.238281,25.24219 0,0.39844 0.0078,0.80469 0.02734,1.19922 0.01172,0.30078 -0.21875,0.55468 -0.515626,0.57031 -0.01172,0 -0.01953,0 -0.02734,0"
     fill-opacity="1"
     fill-rule="nonzero"
     id="path15" />
  <path
     fill="#5db3e7"
     d="m 36.75,60.472651 c -13.078125,0 -23.71875,-10.64062 -23.71875,-23.72265 0,-3.79297 0.875,-7.42188 2.597656,-10.78516 0.136719,-0.26562 0.460938,-0.37109 0.730469,-0.23437 0.265625,0.13672 0.371094,0.46484 0.234375,0.73047 -1.644531,3.20703 -2.476563,6.66796 -2.476563,10.28906 0,12.48047 10.152344,22.63672 22.632813,22.63672 6.792969,0 13.167969,-3.01953 17.492187,-8.28516 0.191407,-0.23437 0.535157,-0.26562 0.765626,-0.0742 0.230468,0.1875 0.265624,0.53125 0.07422,0.76172 -4.535156,5.51953 -11.214844,8.68359 -18.332031,8.68359"
     fill-opacity="1"
     fill-rule="nonzero"
     id="path16" />
  <path
     fill="#54afe6"
     d="m 58.796875,44.457031 c -0.05469,0 -0.113281,-0.008 -0.167969,-0.0273 -0.285156,-0.0937 -0.441406,-0.39844 -0.347656,-0.6836 0.734375,-2.2539 1.105469,-4.60547 1.105469,-6.99609 0,-12.48047 -10.152344,-22.63281 -22.636719,-22.63281 -3.675781,0 -7.328125,0.90625 -10.5625,2.61718 -0.265625,0.14063 -0.59375,0.0391 -0.734375,-0.22265 -0.140625,-0.26563 -0.03906,-0.59375 0.226562,-0.73438 3.390626,-1.79687 7.21875,-2.74609 11.070313,-2.74609 13.082031,0 23.722656,10.64062 23.722656,23.71875 0,2.5039 -0.390625,4.96875 -1.160156,7.33203 -0.07422,0.23047 -0.285156,0.375 -0.515625,0.375"
     fill-opacity="1"
     fill-rule="nonzero"
     id="path17" />
  <path
     fill="#544f9f"
     d="m 36.75,57.867191 c -1.640625,0 -3.273437,-0.19141 -4.859375,-0.56641 -0.292969,-0.0703 -0.472656,-0.36328 -0.402344,-0.65234 0.06641,-0.29297 0.359375,-0.47266 0.652344,-0.40235 1.503906,0.35156 3.054688,0.53516 4.609375,0.53516 11.046875,0 20.03125,-8.98828 20.03125,-20.03125 0,-11.04297 -8.984375,-20.02735 -20.03125,-20.02735 -11.042969,0 -20.027344,8.98438 -20.027344,20.02735 0,5.85156 2.558594,11.39844 7.019531,15.21875 0.226563,0.19531 0.253907,0.53515 0.05859,0.76562 -0.195312,0.22657 -0.535156,0.25391 -0.765625,0.0586 -4.703125,-4.02735 -7.398437,-9.8711 -7.398437,-16.04297 0,-11.64063 9.472656,-21.11328 21.113281,-21.11328 11.644531,0 21.117187,9.47265 21.117187,21.11328 0,11.64453 -9.472656,21.11719 -21.117187,21.11719"
     fill-opacity="1"
     fill-rule="nonzero"
     id="path18" />
  <path
     fill="#f1ad53"
     d="m 36.75,55.257811 c -3.75,0 -7.367187,-1.12109 -10.453125,-3.24219 -3.015625,-2.07031 -5.332031,-4.94922 -6.703125,-8.32422 -0.113281,-0.27734 0.01953,-0.59375 0.296875,-0.70703 0.277344,-0.11328 0.597656,0.0195 0.707031,0.29688 2.6875,6.61719 9.027344,10.89453 16.152344,10.89453 9.609375,0 17.425781,-7.82031 17.425781,-17.42578 0,-6.57031 -3.648437,-12.51563 -9.511718,-15.51953 -0.269532,-0.13672 -0.375,-0.46485 -0.238282,-0.73047 0.136719,-0.26563 0.464844,-0.3711 0.730469,-0.23438 2.992187,1.52735 5.515625,3.84766 7.300781,6.69922 1.832032,2.9336 2.804688,6.31641 2.804688,9.78516 0,10.20703 -8.304688,18.50781 -18.511719,18.50781"
     fill-opacity="1"
     fill-rule="nonzero"
     id="path19" />
  <path
     fill="#5db3e7"
     d="m 19.390625,32.667971 c -0.04687,0 -0.09375,-0.004 -0.140625,-0.0156 -0.289063,-0.0781 -0.460937,-0.375 -0.386719,-0.66797 1.003906,-3.75781 3.238282,-7.18359 6.289063,-9.64453 3.140625,-2.53515 6.925781,-3.94531 10.949219,-4.08594 0.300781,-0.0117 0.554687,0.22266 0.5625,0.52344 0.01172,0.30078 -0.222657,0.55078 -0.523438,0.5625 -7.59375,0.26172 -14.265625,5.57813 -16.226562,12.92578 -0.06641,0.24219 -0.285157,0.40235 -0.523438,0.40235"
     fill-opacity="1"
     fill-rule="nonzero"
     id="path20" />
  <path
     fill="#f14d27"
     d="m 36.75,52.652341 c -8.765625,0 -15.902344,-7.13281 -15.902344,-15.90234 0,-8.76953 7.136719,-15.90235 15.902344,-15.90235 8.769531,0 15.902344,7.13282 15.902344,15.90235 0,1.22265 -0.136719,2.4414 -0.410157,3.61719 -0.07031,0.29296 -0.363281,0.47656 -0.652343,0.40625 -0.292969,-0.0664 -0.476563,-0.35938 -0.40625,-0.64844 0.253906,-1.10156 0.386719,-2.23438 0.386719,-3.375 0,-8.16797 -6.648438,-14.81641 -14.820313,-14.81641 -8.167969,0 -14.816406,6.64844 -14.816406,14.81641 0,8.17187 6.648437,14.8164 14.816406,14.8164 2.699219,0 5.339844,-0.73046 7.640625,-2.11718 0.257812,-0.15625 0.589844,-0.0742 0.746094,0.18359 0.15625,0.25781 0.07031,0.58984 -0.183594,0.74609 -2.46875,1.48829 -5.304688,2.27344 -8.203125,2.27344"
     fill-opacity="1"
     fill-rule="nonzero"
     id="path21" />
  <g
     fill="#333333"
     fill-opacity="1"
     id="g24"
     transform="translate(-28.078125,-122.98047)">
    <g
       transform="translate(137.31655,153.92161)"
       id="g23">
      <g
         id="g22">
        <path
           d="M 7.84375,0 H 5.796875 V -15.796875 H 0.21875 v -1.8125 h 13.203125 v 1.8125 H 7.84375 Z m 0,0"
           id="path22" />
      </g>
    </g>
  </g>
  <g
     fill="#333333"
     fill-opacity="1"
     id="g27"
     transform="translate(-28.078125,-122.98047)">
    <g
       transform="translate(152.76508,153.92161)"
       id="g26">
      <g
         id="g25">
        <path
           d="m 17.703125,-8.828125 c 0,2.8125 -0.714844,5.027344 -2.140625,6.640625 -1.417969,1.617188 -3.398438,2.421875 -5.9375,2.421875 -2.59375,0 -4.601562,-0.789063 -6.015625,-2.375 C 2.203125,-3.722656 1.5,-5.960938 1.5,-8.859375 c 0,-2.863281 0.707031,-5.082031 2.125,-6.65625 1.414062,-1.582031 3.425781,-2.375 6.03125,-2.375 2.519531,0 4.488281,0.804687 5.90625,2.40625 1.425781,1.605469 2.140625,3.824219 2.140625,6.65625 z m -14.03125,0 c 0,2.386719 0.503906,4.199219 1.515625,5.4375 1.019531,1.230469 2.5,1.84375 4.4375,1.84375 1.945312,0 3.421875,-0.613281 4.421875,-1.84375 1,-1.226563 1.5,-3.039063 1.5,-5.4375 0,-2.375 -0.5,-4.171875 -1.5,-5.390625 -0.992187,-1.226562 -2.453125,-1.84375 -4.390625,-1.84375 -1.960938,0 -3.449219,0.621094 -4.46875,1.859375 -1.011719,1.230469 -1.515625,3.023437 -1.515625,5.375 z m 0,0"
           id="path24" />
      </g>
    </g>
  </g>
  <g
     fill="#333333"
     fill-opacity="1"
     id="g30"
     transform="translate(-28.078125,-122.98047)">
    <g
       transform="translate(173.77835,153.92161)"
       id="g29">
      <g
         id="g28">
        <path
           d="M 10.21875,0 4.234375,-15.609375 h -0.09375 c 0.113281,1.242187 0.171875,2.710937 0.171875,4.40625 V 0 H 2.421875 V -17.609375 H 5.5 l 5.578125,14.53125 h 0.09375 l 5.640625,-14.53125 h 3.046875 V 0 H 17.8125 v -11.34375 c 0,-1.300781 0.05469,-2.71875 0.171875,-4.25 h -0.09375 L 11.859375,0 Z m 0,0"
           id="path27" />
      </g>
    </g>
  </g>
  <g
     fill="#333333"
     fill-opacity="1"
     id="g33"
     transform="translate(-28.078125,-122.98047)">
    <g
       transform="translate(197.85102,153.92161)"
       id="g32">
      <g
         id="g31" />
    </g>
  </g>
  <g
     fill="#333333"
     fill-opacity="1"
     id="g36"
     transform="translate(-28.078125,-122.98047)">
    <g
       transform="translate(206.06056,153.92161)"
       id="g35">
      <g
         id="g34">
        <path
           d="M 4.46875,0 H 2.421875 v -17.609375 h 9.8125 v 1.8125 H 4.46875 v 6.453125 h 7.296875 v 1.8125 H 4.46875 Z m 0,0"
           id="path33" />
      </g>
    </g>
  </g>
  <g
     fill="#333333"
     fill-opacity="1"
     id="g39"
     transform="translate(-28.078125,-122.98047)">
    <g
       transform="translate(220.59367,153.92161)"
       id="g38">
      <g
         id="g37">
        <path
           d="m 13.5,0 -2.203125,-5.609375 h -7.0625 L 2.078125,0 H 0 L 6.96875,-17.6875 H 8.6875 L 15.609375,0 Z m -2.84375,-7.4375 -2.046875,-5.46875 c -0.261719,-0.6875 -0.53125,-1.53125 -0.8125,-2.53125 -0.179687,0.773438 -0.433594,1.617188 -0.765625,2.53125 l -2.0625,5.46875 z m 0,0"
           id="path36" />
      </g>
    </g>
  </g>
  <g
     fill="#333333"
     fill-opacity="1"
     id="g42"
     transform="translate(-28.078125,-122.98047)">
    <g
       transform="translate(238.00551,153.92161)"
       id="g41">
      <g
         id="g40">
        <path
           d="M 4.46875,-7.328125 V 0 H 2.421875 V -17.609375 H 7.25 c 2.164062,0 3.765625,0.417969 4.796875,1.25 1.03125,0.824219 1.546875,2.0625 1.546875,3.71875 0,2.335937 -1.183594,3.90625 -3.546875,4.71875 L 14.828125,0 H 12.40625 L 8.140625,-7.328125 Z m 0,-1.75 h 2.8125 c 1.4375,0 2.492188,-0.285156 3.171875,-0.859375 0.675781,-0.582031 1.015625,-1.445312 1.015625,-2.59375 0,-1.164062 -0.34375,-2.003906 -1.03125,-2.515625 C 9.75,-15.554688 8.644531,-15.8125 7.125,-15.8125 H 4.46875 Z m 0,0"
           id="path39" />
      </g>
    </g>
  </g>
  <g
     fill="#333333"
     fill-opacity="1"
     id="g45"
     transform="translate(-28.078125,-122.98047)">
    <g
       transform="translate(255.056,153.92161)"
       id="g44">
      <g
         id="g43">
        <path
           d="M 4.46875,-7.328125 V 0 H 2.421875 V -17.609375 H 7.25 c 2.164062,0 3.765625,0.417969 4.796875,1.25 1.03125,0.824219 1.546875,2.0625 1.546875,3.71875 0,2.335937 -1.183594,3.90625 -3.546875,4.71875 L 14.828125,0 H 12.40625 L 8.140625,-7.328125 Z m 0,-1.75 h 2.8125 c 1.4375,0 2.492188,-0.285156 3.171875,-0.859375 0.675781,-0.582031 1.015625,-1.445312 1.015625,-2.59375 0,-1.164062 -0.34375,-2.003906 -1.03125,-2.515625 C 9.75,-15.554688 8.644531,-15.8125 7.125,-15.8125 H 4.46875 Z m 0,0"
           id="path42" />
      </g>
    </g>
  </g>
  <g
     fill="#333333"
     fill-opacity="1"
     id="g48"
     transform="translate(-28.078125,-122.98047)">
    <g
       transform="translate(272.1065,153.92161)"
       id="g47">
      <g
         id="g46">
        <path
           d="m 12.234375,0 h -9.8125 v -17.609375 h 9.8125 v 1.8125 H 4.46875 V -10.125 h 7.296875 v 1.8125 H 4.46875 v 6.484375 h 7.765625 z m 0,0"
           id="path45" />
      </g>
    </g>
  </g>
  <g
     fill="#333333"
     fill-opacity="1"
     id="g51"
     transform="translate(-28.078125,-122.98047)">
    <g
       transform="translate(287.62729,153.92161)"
       id="g50">
      <g
         id="g49">
        <path
           d="M 2.421875,0 V -17.609375 H 4.46875 v 15.75 h 7.765625 V 0 Z m 0,0"
           id="path48" />
      </g>
    </g>
  </g>
  <g
     fill="#333333"
     fill-opacity="1"
     id="g54"
     transform="translate(-28.078125,-122.98047)">
    <g
       transform="translate(302.23268,153.92161)"
       id="g53">
      <g
         id="g52">
        <path
           d="M 2.421875,0 V -17.609375 H 4.46875 v 15.75 h 7.765625 V 0 Z m 0,0"
           id="path51" />
      </g>
    </g>
  </g>
  <g
     fill="#333333"
     fill-opacity="1"
     id="g57"
     transform="translate(-28.078125,-122.98047)">
    <g
       transform="translate(167.29769,175.19034)"
       id="g56">
      <g
         id="g55">
        <path
           d="m 5.515625,-2.09375 c 0,0.699219 -0.25,1.242188 -0.75,1.625 -0.5,0.3867188 -1.183594,0.578125 -2.046875,0.578125 -0.929688,0 -1.648438,-0.1171875 -2.15625,-0.359375 v -0.890625 c 0.320312,0.136719 0.671875,0.246094 1.046875,0.328125 0.382813,0.085938 0.765625,0.125 1.140625,0.125 0.613281,0 1.070312,-0.113281 1.375,-0.34375 C 4.4375,-1.269531 4.59375,-1.59375 4.59375,-2 4.59375,-2.28125 4.535156,-2.503906 4.421875,-2.671875 4.316406,-2.847656 4.132812,-3.007812 3.875,-3.15625 c -0.25,-0.144531 -0.640625,-0.3125 -1.171875,-0.5 -0.730469,-0.257812 -1.25,-0.566406 -1.5625,-0.921875 -0.3125,-0.363281 -0.46875,-0.832031 -0.46875,-1.40625 0,-0.613281 0.222656,-1.097656 0.671875,-1.453125 0.457031,-0.363281 1.0625,-0.546875 1.8125,-0.546875 0.78125,0 1.5,0.148437 2.15625,0.4375 L 5.03125,-6.75 C 4.382812,-7.019531 3.753906,-7.15625 3.140625,-7.15625 2.660156,-7.15625 2.28125,-7.050781 2,-6.84375 c -0.273438,0.210938 -0.40625,0.496094 -0.40625,0.859375 0,0.273437 0.050781,0.496094 0.15625,0.671875 0.101562,0.179688 0.269531,0.339844 0.5,0.484375 0.238281,0.148437 0.601562,0.308594 1.09375,0.484375 0.832031,0.292969 1.398438,0.605469 1.703125,0.9375 0.3125,0.335938 0.46875,0.773438 0.46875,1.3125 z m 0,0"
           id="path54" />
      </g>
    </g>
  </g>
  <g
     fill="#333333"
     fill-opacity="1"
     id="g60"
     transform="translate(-28.078125,-122.98047)">
    <g
       transform="translate(182.09168,175.19034)"
       id="g59">
      <g
         id="g58">
        <path
           d="m 7.90625,-3.9375 c 0,1.261719 -0.320312,2.25 -0.953125,2.96875 -0.636719,0.71875 -1.523437,1.078125 -2.65625,1.078125 -1.15625,0 -2.054687,-0.351563 -2.6875,-1.0625 -0.625,-0.707031 -0.9375,-1.707031 -0.9375,-3 0,-1.28125 0.3125,-2.269531 0.9375,-2.96875 0.632813,-0.707031 1.535156,-1.0625 2.703125,-1.0625 1.125,0 2.003906,0.359375 2.640625,1.078125 0.632813,0.71875 0.953125,1.710938 0.953125,2.96875 z m -6.265625,0 c 0,1.0625 0.222656,1.871094 0.671875,2.421875 0.457031,0.554687 1.117188,0.828125 1.984375,0.828125 0.875,0 1.53125,-0.273438 1.96875,-0.828125 C 6.710938,-2.066406 6.9375,-2.875 6.9375,-3.9375 6.9375,-5 6.710938,-5.800781 6.265625,-6.34375 5.828125,-6.894531 5.175781,-7.171875 4.3125,-7.171875 c -0.875,0 -1.542969,0.277344 -2,0.828125 -0.449219,0.554688 -0.671875,1.355469 -0.671875,2.40625 z m 0,0"
           id="path57" />
      </g>
    </g>
  </g>
  <g
     fill="#333333"
     fill-opacity="1"
     id="g63"
     transform="translate(-28.078125,-122.98047)">
    <g
       transform="translate(199.41906,175.19034)"
       id="g62">
      <g
         id="g61">
        <path
           d="M 2,0 H 1.078125 V -7.859375 H 5.46875 v 0.8125 H 2 v 2.875 h 3.25 v 0.8125 H 2 Z m 0,0"
           id="path60" />
      </g>
    </g>
  </g>
  <g
     fill="#333333"
     fill-opacity="1"
     id="g66"
     transform="translate(-28.078125,-122.98047)">
    <g
       transform="translate(213.85268,175.19034)"
       id="g65">
      <g
         id="g64">
        <path
           d="M 3.5,0 H 2.59375 v -7.046875 h -2.5 v -0.8125 h 5.890625 v 0.8125 H 3.5 Z m 0,0"
           id="path63" />
      </g>
    </g>
  </g>
  <g
     fill="#333333"
     fill-opacity="1"
     id="g69"
     transform="translate(-28.078125,-122.98047)">
    <g
       transform="translate(228.69508,175.19034)"
       id="g68">
      <g
         id="g67">
        <path
           d="M 7.9375,0 H 7.046875 l -1.59375,-5.265625 c -0.074219,-0.226563 -0.15625,-0.519531 -0.25,-0.875 C 5.109375,-6.503906 5.0625,-6.71875 5.0625,-6.78125 4.976562,-6.3125 4.847656,-5.796875 4.671875,-5.234375 L 3.140625,0 h -0.90625 l -2.09375,-7.859375 h 0.96875 L 2.359375,-3 c 0.164063,0.679688 0.289063,1.292969 0.375,1.84375 0.09375,-0.65625 0.234375,-1.296875 0.421875,-1.921875 l 1.421875,-4.78125 h 0.96875 l 1.46875,4.828125 c 0.175781,0.554688 0.320313,1.179688 0.4375,1.875 0.070313,-0.507812 0.203125,-1.128906 0.390625,-1.859375 l 1.234375,-4.84375 h 0.96875 z m 0,0"
           id="path66" />
      </g>
    </g>
  </g>
  <g
     fill="#333333"
     fill-opacity="1"
     id="g72"
     transform="translate(-28.078125,-122.98047)">
    <g
       transform="translate(247.64145,175.19034)"
       id="g71">
      <g
         id="g70">
        <path
           d="M 6.03125,0 5.046875,-2.5 H 1.890625 L 0.921875,0 H 0 L 3.109375,-7.890625 H 3.875 L 6.96875,0 Z M 4.765625,-3.328125 3.84375,-5.765625 c -0.117188,-0.300781 -0.234375,-0.675781 -0.359375,-1.125 -0.085937,0.34375 -0.199219,0.71875 -0.34375,1.125 l -0.921875,2.4375 z m 0,0"
           id="path69" />
      </g>
    </g>
  </g>
  <g
     fill="#333333"
     fill-opacity="1"
     id="g75"
     transform="translate(-28.078125,-122.98047)">
    <g
       transform="translate(263.36059,175.19034)"
       id="g74">
      <g
         id="g73">
        <path
           d="M 2,-3.265625 V 0 H 1.078125 v -7.859375 h 2.15625 c 0.96875,0 1.679687,0.1875 2.140625,0.5625 0.457031,0.367187 0.6875,0.917969 0.6875,1.65625 0,1.042969 -0.527344,1.746094 -1.578125,2.109375 L 6.625,0 H 5.546875 L 3.640625,-3.265625 Z M 2,-4.0625 h 1.25 c 0.644531,0 1.117188,-0.125 1.421875,-0.375 C 4.972656,-4.695312 5.125,-5.082031 5.125,-5.59375 5.125,-6.113281 4.96875,-6.488281 4.65625,-6.71875 4.351562,-6.945312 3.863281,-7.0625 3.1875,-7.0625 H 2 Z m 0,0"
           id="path72" />
      </g>
    </g>
  </g>
  <g
     fill="#333333"
     fill-opacity="1"
     id="g78"
     transform="translate(-28.078125,-122.98047)">
    <g
       transform="translate(278.91836,175.19034)"
       id="g77">
      <g
         id="g76">
        <path
           d="M 5.46875,0 H 1.078125 V -7.859375 H 5.46875 v 0.8125 H 2 v 2.53125 H 5.25 V -3.71875 H 2 v 2.90625 h 3.46875 z m 0,0"
           id="path75" />
      </g>
    </g>
  </g>
  <g
     fill="#333333"
     fill-opacity="1"
     id="g81"
     transform="translate(-28.078125,-122.98047)">
    <g
       transform="translate(160.82894,190.19033)"
       id="g80">
      <g
         id="g79">
        <path
           d="m 7.359375,-4 c 0,1.292969 -0.355469,2.28125 -1.0625,2.96875 C 5.597656,-0.34375 4.585938,0 3.265625,0 h -2.1875 v -7.859375 h 2.40625 c 1.226563,0 2.179687,0.339844 2.859375,1.015625 0.675781,0.679688 1.015625,1.625 1.015625,2.84375 z m -0.96875,0.03125 C 6.390625,-5 6.128906,-5.773438 5.609375,-6.296875 5.097656,-6.816406 4.335938,-7.078125 3.328125,-7.078125 H 2 v 6.28125 h 1.109375 c 1.09375,0 1.910156,-0.265625 2.453125,-0.796875 0.550781,-0.539062 0.828125,-1.332031 0.828125,-2.375 z m 0,0"
           id="path78" />
      </g>
    </g>
  </g>
  <g
     fill="#333333"
     fill-opacity="1"
     id="g84"
     transform="translate(-28.078125,-122.98047)">
    <g
       transform="translate(177.60768,190.19033)"
       id="g83">
      <g
         id="g82">
        <path
           d="M 5.46875,0 H 1.078125 V -7.859375 H 5.46875 v 0.8125 H 2 v 2.53125 H 5.25 V -3.71875 H 2 v 2.90625 h 3.46875 z m 0,0"
           id="path81" />
      </g>
    </g>
  </g>
  <g
     fill="#333333"
     fill-opacity="1"
     id="g87"
     transform="translate(-28.078125,-122.98047)">
    <g
       transform="translate(192.48236,190.19033)"
       id="g86">
      <g
         id="g85">
        <path
           d="M 5.578125,-7.859375 H 6.5625 L 3.71875,0 H 2.8125 L 0,-7.859375 h 0.96875 l 1.8125,5.078125 c 0.207031,0.585938 0.367188,1.152344 0.484375,1.703125 C 3.398438,-1.648438 3.570312,-2.226562 3.78125,-2.8125 Z m 0,0"
           id="path84" />
      </g>
    </g>
  </g>
  <g
     fill="#333333"
     fill-opacity="1"
     id="g90"
     transform="translate(-28.078125,-122.98047)">
    <g
       transform="translate(207.78734,190.19033)"
       id="g89">
      <g
         id="g88">
        <path
           d="M 5.46875,0 H 1.078125 V -7.859375 H 5.46875 v 0.8125 H 2 v 2.53125 H 5.25 V -3.71875 H 2 v 2.90625 h 3.46875 z m 0,0"
           id="path87" />
      </g>
    </g>
  </g>
  <g
     fill="#333333"
     fill-opacity="1"
     id="g93"
     transform="translate(-28.078125,-122.98047)">
    <g
       transform="translate(222.66201,190.19033)"
       id="g92">
      <g
         id="g91">
        <path
           d="M 1.078125,0 V -7.859375 H 2 v 7.03125 H 5.46875 V 0 Z m 0,0"
           id="path90" />
      </g>
    </g>
  </g>
  <g
     fill="#333333"
     fill-opacity="1"
     id="g96"
     transform="translate(-28.078125,-122.98047)">
    <g
       transform="translate(237.1279,190.19033)"
       id="g95">
      <g
         id="g94">
        <path
           d="m 7.90625,-3.9375 c 0,1.261719 -0.320312,2.25 -0.953125,2.96875 -0.636719,0.71875 -1.523437,1.078125 -2.65625,1.078125 -1.15625,0 -2.054687,-0.351563 -2.6875,-1.0625 -0.625,-0.707031 -0.9375,-1.707031 -0.9375,-3 0,-1.28125 0.3125,-2.269531 0.9375,-2.96875 0.632813,-0.707031 1.535156,-1.0625 2.703125,-1.0625 1.125,0 2.003906,0.359375 2.640625,1.078125 0.632813,0.71875 0.953125,1.710938 0.953125,2.96875 z m -6.265625,0 c 0,1.0625 0.222656,1.871094 0.671875,2.421875 0.457031,0.554687 1.117188,0.828125 1.984375,0.828125 0.875,0 1.53125,-0.273438 1.96875,-0.828125 C 6.710938,-2.066406 6.9375,-2.875 6.9375,-3.9375 6.9375,-5 6.710938,-5.800781 6.265625,-6.34375 5.828125,-6.894531 5.175781,-7.171875 4.3125,-7.171875 c -0.875,0 -1.542969,0.277344 -2,0.828125 -0.449219,0.554688 -0.671875,1.355469 -0.671875,2.40625 z m 0,0"
           id="path93" />
      </g>
    </g>
  </g>
  <g
     fill="#333333"
     fill-opacity="1"
     id="g99"
     transform="translate(-28.078125,-122.98047)">
    <g
       transform="translate(254.45527,190.19033)"
       id="g98">
      <g
         id="g97">
        <path
           d="m 6.0625,-5.578125 c 0,0.804687 -0.273438,1.417969 -0.8125,1.84375 C 4.707031,-3.304688 3.929688,-3.09375 2.921875,-3.09375 H 2 V 0 H 1.078125 V -7.859375 H 3.125 c 1.957031,0 2.9375,0.761719 2.9375,2.28125 z M 2,-3.875 h 0.8125 c 0.8125,0 1.398438,-0.128906 1.765625,-0.390625 C 4.941406,-4.523438 5.125,-4.945312 5.125,-5.53125 5.125,-6.050781 4.953125,-6.4375 4.609375,-6.6875 4.265625,-6.945312 3.734375,-7.078125 3.015625,-7.078125 H 2 Z m 0,0"
           id="path96" />
      </g>
    </g>
  </g>
  <g
     fill="#333333"
     fill-opacity="1"
     id="g102"
     transform="translate(-28.078125,-122.98047)">
    <g
       transform="translate(269.83555,190.19033)"
       id="g101">
      <g
         id="g100">
        <path
           d="M 5.46875,0 H 1.078125 V -7.859375 H 5.46875 v 0.8125 H 2 v 2.53125 H 5.25 V -3.71875 H 2 v 2.90625 h 3.46875 z m 0,0"
           id="path99" />
      </g>
    </g>
  </g>
  <g
     fill="#333333"
     fill-opacity="1"
     id="g105"
     transform="translate(-28.078125,-122.98047)">
    <g
       transform="translate(284.71023,190.19033)"
       id="g104">
      <g
         id="g103">
        <path
           d="M 2,-3.265625 V 0 H 1.078125 v -7.859375 h 2.15625 c 0.96875,0 1.679687,0.1875 2.140625,0.5625 0.457031,0.367187 0.6875,0.917969 0.6875,1.65625 0,1.042969 -0.527344,1.746094 -1.578125,2.109375 L 6.625,0 H 5.546875 L 3.640625,-3.265625 Z M 2,-4.0625 h 1.25 c 0.644531,0 1.117188,-0.125 1.421875,-0.375 C 4.972656,-4.695312 5.125,-5.082031 5.125,-5.59375 5.125,-6.113281 4.96875,-6.488281 4.65625,-6.71875 4.351562,-6.945312 3.863281,-7.0625 3.1875,-7.0625 H 2 Z m 0,0"
           id="path102" />
      </g>
    </g>
  </g>
</svg>
